{"asset":{"version":"2.0","generator":"THREE.GLTFExporter r175"},"scenes":[{"name":"AuxScene","nodes":[8]}],"scene":0,"nodes":[{"mesh":0},{"mesh":1},{"mesh":2},{"mesh":3},{"matrix":[0.29869884179232264,0,-0.2986988417923227,0,0,-0.42242395312783815,0,0,0.2986988417923227,0,0.29869884179232264,0,0,0,0,1],"children":[0,1,2,3]},{"children":[4]},{"matrix":[1,0,0,0,0,1,0,0,0,0,1,0,-35.94733192742404,15.317936857258228,34.75253663147011,1],"children":[5]},{"children":[6]},{"children":[7]}],"bufferViews":[{"buffer":0,"byteOffset":0,"byteLength":11088,"target":34962,"byteStride":12},{"buffer":0,"byteOffset":11088,"byteLength":7392,"target":34962,"byteStride":8},{"buffer":0,"byteOffset":18480,"byteLength":11088,"target":34962,"byteStride":12},{"buffer":0,"byteOffset":29568,"byteLength":11088,"target":34962,"byteStride":12},{"buffer":0,"byteOffset":40656,"byteLength":7392,"target":34962,"byteStride":8},{"buffer":0,"byteOffset":48048,"byteLength":11088,"target":34962,"byteStride":12},{"buffer":0,"byteOffset":59136,"byteLength":11088,"target":34962,"byteStride":12},{"buffer":0,"byteOffset":70224,"byteLength":7392,"target":34962,"byteStride":8},{"buffer":0,"byteOffset":77616,"byteLength":11088,"target":34962,"byteStride":12},{"buffer":0,"byteOffset":88704,"byteLength":11088,"target":34962,"byteStride":12},{"buffer":0,"byteOffset":99792,"byteLength":7392,"target":34962,"byteStride":8},{"buffer":0,"byteOffset":107184,"byteLength":11088,"target":34962,"byteStride":12}],"buffers":[{"byteLength":118272,"uri":"data:application/octet-stream;base64,"}],"accessors":[{"bufferView":0,"componentType":5126,"count":924,"max":[59.202999114990234,72.52300262451172,10.600000381469727],"min":[0,0,-0.6000000238418579],"type":"VEC3"},{"bufferView":1,"componentType":5126,"count":924,"max":[72.52300262451172,72.52300262451172],"min":[0,-9.600000381469727],"type":"VEC2"},{"bufferView":2,"componentType":5126,"count":924,"max":[1,1,1],"min":[-0.8560965657234192,-1,-1],"type":"VEC3"},{"bufferView":3,"componentType":5126,"count":924,"max":[118.40599822998047,72.52400207519531,10.600000381469727],"min":[59.202999114990234,0,-0.6000000238418579],"type":"VEC3"},{"bufferView":4,"componentType":5126,"count":924,"max":[118.40599822998047,72.52400207519531],"min":[0,-9.600000381469727],"type":"VEC2"},{"bufferView":5,"componentType":5126,"count":924,"max":[1,1,1],"min":[-0.8560966849327087,-1,-1],"type":"VEC3"},{"bufferView":6,"componentType":5126,"count":924,"max":[177.60899353027344,72.52400207519531,10.600000381469727],"min":[118.40599822998047,0,-0.6000000238418579],"type":"VEC3"},{"bufferView":7,"componentType":5126,"count":924,"max":[177.60899353027344,72.52400207519531],"min":[0,-9.600000381469727],"type":"VEC2"},{"bufferView":8,"componentType":5126,"count":924,"max":[1,1,1],"min":[-0.8560963273048401,-1,-1],"type":"VEC3"},{"bufferView":9,"componentType":5126,"count":924,"max":[236.72900390625,72.52400207519531,10.600000381469727],"min":[177.5260009765625,0,-0.6000000238418579],"type":"VEC3"},{"bufferView":10,"componentType":5126,"count":924,"max":[236.72900390625,72.52400207519531],"min":[0,-9.600000381469727],"type":"VEC2"},{"bufferView":11,"componentType":5126,"count":924,"max":[1,1,1],"min":[-0.8560959696769714,-1,-1],"type":"VEC3"}],"materials":[{"pbrMetallicRoughness":{"baseColorFactor":[0.6375968739867731,0.6653872982754769,0.7083757798856457,1],"metallicFactor":0,"roughnessFactor":0.3},"doubleSided":true,"extensions":{"KHR_materials_transmission":{"transmissionFactor":1},"KHR_materials_volume":{"thicknessFactor":0,"attenuationColor":[1,1,1]}}}],"meshes":[{"primitives":[{"mode":4,"attributes":{"POSITION":0,"TEXCOORD_0":1,"NORMAL":2},"material":0}]},{"primitives":[{"mode":4,"attributes":{"POSITION":3,"TEXCOORD_0":4,"NORMAL":5},"material":0}]},{"primitives":[{"mode":4,"attributes":{"POSITION":6,"TEXCOORD_0":7,"NORMAL":8},"material":0}]},{"primitives":[{"mode":4,"attributes":{"POSITION":9,"TEXCOORD_0":10,"NORMAL":11},"material":0}]}],"extensionsUsed":["KHR_materials_transmission","KHR_materials_volume"]}
